<svg xmlns="http://www.w3.org/2000/svg" viewBox="0 0 512 512" style="isolation:isolate">
  <defs/>
  <defs>
    <clipPath id="a">
      <path d="M0 0h512v512H0z"/>
    </clipPath>
  </defs>
  <g clip-path="url(#a)" style="isolation:isolate">
    <circle cx="256" cy="256" r="256" fill="#90F" vector-effect="non-scaling-stroke"/>
    <path d="M247.411 350.762l-44.664 33.391q-1.374 1.237-4.294 2.165-2.921.927-6.356.927h-51.535q-8.246 0-12.025-3.401t-3.779-10.821V172.677q0-4.019 1.202-6.802 1.203-2.782 3.608-4.637l44.32-33.7q1.718-1.237 4.638-2.01 2.92-.773 6.356-.773h35.731q7.558 0 12.712 2.164 5.153 2.164 10.307 7.111l23.706 24.734 41.571-31.226q1.718-1.237 4.638-2.01 2.921-.773 6.356-.773h51.535q8.246 0 12.025 3.401t3.779 10.821v200.346q0 4.019-1.202 6.802-1.203 2.782-3.608 4.637l-44.663 33.391q-1.375 1.237-4.295 2.165-2.92.927-6.356.927h-51.535q-8.245 0-12.025-3.401-3.779-3.401-3.779-10.821v-36.792l-7.558-8.348v11.44q0 4.019-1.203 6.802-1.202 2.782-3.607 4.637z"/>
    <path fill="#FFF" d="M184.882 350.453h51.535q6.527 0 9.448-2.628 2.92-2.628 2.92-8.502V237.295l58.75 63.999v38.029q0 5.874 2.92 8.502 2.92 2.628 9.448 2.628h51.535q6.528 0 9.448-2.628 2.92-2.628 2.92-8.502V138.977q0-5.874-2.92-8.502-2.92-2.628-9.448-2.628h-51.535q-6.528 0-9.448 2.628-2.92 2.628-2.92 8.502v65.854l-66.652-68.637q-4.466-4.637-9.104-6.492-4.639-1.855-11.166-1.855h-35.731q-6.528 0-9.448 2.628-2.92 2.628-2.92 8.502v200.346q0 5.874 2.92 8.502 2.92 2.628 9.448 2.628z"/>
    <path d="M217.864 158.146l126.432 127.999V155.673h3.436v166.954h-3.436v-31.845l-129.867-131.09q-.344-.309-.859-.619-.516-.309-.859-.309-.344 0-.516.309-.171.31-.171.619v162.935h-3.436V159.073q0-1.855 1.374-2.782 1.374-.928 2.749-.928 1.374 0 2.405.619 1.03.618 2.748 2.164z"/>
  </g>
</svg>
