<?xml version="1.0" standalone="no"?>
<!DOCTYPE svg PUBLIC "-//W3C//DTD SVG 20010904//EN"
 "http://www.w3.org/TR/2001/REC-SVG-20010904/DTD/svg10.dtd">
<svg version="1.0" xmlns="http://www.w3.org/2000/svg"
 width="512.000000pt" height="512.000000pt" viewBox="0 0 512.000000 512.000000"
 preserveAspectRatio="xMidYMid meet">
<metadata>
Created by potrace 1.11, written by Peter Selinger 2001-2013
</metadata>
<g transform="translate(0.000000,512.000000) scale(0.100000,-0.100000)"
fill="#000000" stroke="none">
<path d="M2335 5111 c-785 -79 -1474 -490 -1904 -1136 -569 -855 -572 -1965
-8 -2819 44 -67 107 -155 140 -196 86 -107 317 -334 417 -412 344 -265 735
-439 1142 -507 318 -54 558 -54 876 0 683 115 1302 519 1691 1104 569 855 572
1965 8 2819 -109 164 -177 247 -336 406 -206 206 -390 340 -636 465 -263 133
-473 202 -763 250 -171 29 -472 41 -627 26z m-7 -1297 c40 -20 125 -102 393
-377 188 -194 345 -353 350 -355 5 -2 9 151 9 351 l0 355 31 26 31 26 308 0
c180 0 320 -4 335 -10 57 -22 55 12 55 -1100 0 -1101 1 -1072 -52 -1102 -31
-17 -527 -25 -613 -9 -96 17 -95 15 -95 270 l-1 216 -292 318 -292 317 -5
-527 c-5 -559 -5 -558 -53 -585 -30 -17 -528 -24 -612 -9 -105 19 -95 -97 -95
1110 1 814 3 1060 13 1072 28 35 49 38 293 39 238 0 241 0 292 -26z"/>
<path d="M2090 3541 c-7 -14 -9 -284 -8 -833 3 -765 4 -813 21 -816 16 -3 17
41 17 817 0 487 4 821 9 821 5 0 302 -296 660 -657 l651 -658 0 -162 c0 -156
1 -163 20 -163 20 0 20 7 20 835 0 828 0 835 -20 835 -20 0 -20 -7 -20 -647
l-1 -648 -642 648 c-540 544 -646 648 -669 647 -17 0 -31 -8 -38 -19z"/>
</g>
</svg>
